<svg xmlns="http://www.w3.org/2000/svg" viewBox="0 0 512 512"><path fill="#fff" d="M1.4 496l240.1-240L1.4 16 16 1.4l240 240.1L496.1 1.4 510.6 16 270.5 256l240.1 240-14.5 14.6L256 270.5 16 510.6"/><path d="M16 2.8l238.6 238.6 1.4 1.4 1.4-1.4L496.1 2.8 509.2 16 270.5 254.6l-1.4 1.4 1.4 1.4L509.2 496l-13.1 13.1-238.7-238.6-1.4-1.4-1.4 1.4L16 509.2 2.8 496l238.6-238.6 1.4-1.4-1.4-1.4L2.8 16 16 2.8M496.1 0L256 240 16 0 0 16l240 240L0 496l16 16 240-240.1L496.1 512l15.9-16-240-240L512 16 496.1 0z" fill="#111"/></svg>